
<svg version="1.0" xmlns="http://www.w3.org/2000/svg"
 width="110.000000pt" height="131.000000pt" viewBox="0 0 201.000000 131.000000"
 preserveAspectRatio="xMidYMid meet">

<g transform="translate(0.000000,131.000000) scale(0.100000,-0.100000)"
fill="#000000" stroke="none">
<path d="M955 998 c-81 -28 -137 -107 -137 -193 0 -53 6 -65 31 -58 15 4 18
12 14 47 -6 49 22 114 59 141 93 65 221 19 250 -89 9 -33 16 -44 30 -43 23 2
24 34 3 84 -22 52 -42 72 -100 99 -53 25 -101 29 -150 12z"/>
<path d="M949 929 c-120 -70 -83 -251 56 -266 50 -6 91 12 130 59 24 29 27 38
23 90 -3 43 -10 65 -26 80 -17 18 -24 20 -34 10 -10 -10 -9 -18 5 -41 26 -44
22 -86 -12 -123 -24 -27 -36 -33 -71 -33 -35 0 -47 6 -71 33 -53 59 -28 140
52 167 19 7 35 19 37 28 5 24 -44 22 -89 -4z"/>
<path d="M960 870 c-27 -27 -35 -65 -20 -101 15 -35 37 -49 80 -49 43 0 65 14
80 49 25 62 -14 121 -80 121 -26 0 -47 -7 -60 -20z"/>
<path d="M1151 711 c-28 -52 -140 -79 -206 -49 -19 8 -28 9 -37 0 -34 -34 91
-74 164 -53 48 14 102 52 118 81 8 15 6 21 -9 30 -16 8 -22 6 -30 -9z"/>
<path d="M531 446 c11 -31 17 -61 14 -67 -4 -5 0 -16 8 -22 9 -7 25 -34 35
-62 27 -70 53 -72 77 -8 9 26 25 55 35 64 12 10 17 24 14 36 -3 11 2 37 10 58
20 48 20 55 -3 55 -12 0 -23 -13 -34 -42 -9 -24 -26 -70 -38 -102 l-22 -60
-36 100 c-30 82 -40 100 -59 102 l-22 3 21 -55z"/>
<path d="M874 463 c-29 -75 -34 -83 -45 -83 -6 0 -8 -7 -5 -16 4 -9 -3 -41
-14 -70 -19 -53 -19 -54 -1 -54 13 0 24 12 32 35 13 34 15 35 65 35 51 0 53
-1 64 -35 8 -25 18 -35 32 -35 12 0 18 5 16 13 -70 197 -92 247 -110 247 -13
0 -24 -13 -34 -37z m45 -45 c25 -68 25 -68 -13 -68 l-35 0 16 45 c8 25 17 45
19 45 3 0 8 -10 13 -22z"/>
<path d="M1123 481 c-54 -45 -12 -131 62 -131 40 0 64 -24 48 -48 -7 -11 -24
-17 -49 -17 -31 0 -41 5 -49 23 -13 31 -45 29 -45 -2 0 -60 113 -91 158 -43
30 32 30 90 0 111 -12 9 -37 16 -55 16 -29 0 -63 21 -63 39 0 37 89 40 105 4
13 -31 35 -29 35 3 0 36 -36 63 -85 63 -24 0 -49 -7 -62 -18z"/>
<path d="M1340 480 c0 -17 7 -20 40 -20 39 0 40 -1 40 -33 0 -18 -5 -38 -12
-45 -9 -9 -9 -15 0 -24 7 -7 12 -36 12 -65 0 -39 4 -53 14 -53 24 0 27 14 27
120 l1 100 34 0 c27 0 34 4 34 20 0 19 -7 20 -95 20 -88 0 -95 -1 -95 -20z"/>
</g>
</svg>
